<?xml version="1.0" standalone="no"?>
<!DOCTYPE svg PUBLIC "-//W3C//DTD SVG 20010904//EN"
 "http://www.w3.org/TR/2001/REC-SVG-20010904/DTD/svg10.dtd">
<svg version="1.0" xmlns="http://www.w3.org/2000/svg"
 width="154.000000pt" height="154.000000pt" viewBox="0 0 154.000000 154.000000"
 preserveAspectRatio="xMidYMid meet">
<metadata>
Created by potrace 1.11, written by Peter Selinger 2001-2013
</metadata>
<g transform="translate(0.000000,154.000000) scale(0.100000,-0.100000)"
fill="#000000" stroke="none">
<path d="M0 770 l0 -770 770 0 770 0 0 770 0 770 -770 0 -770 0 0 -770z m958
395 c95 -52 142 -129 150 -242 3 -54 0 -84 -14 -124 -24 -66 -82 -132 -134
-153 -22 -9 -40 -18 -40 -21 0 -2 47 -79 105 -169 58 -91 105 -168 105 -171 0
-3 -25 -5 -56 -3 l-57 3 -102 160 -101 160 -132 3 -132 3 0 -166 0 -165 -50 0
-50 0 0 461 0 460 228 -3 227 -3 53 -30z"/>
<path d="M550 905 l0 -205 148 0 c170 0 206 8 249 52 80 82 84 216 10 297 -46
50 -89 61 -254 61 l-153 0 0 -205z"/>
</g>
</svg>
